<?xml version="1.0" encoding="UTF-8" standalone="no"?>
<!DOCTYPE svg PUBLIC "-//W3C//DTD SVG 1.1//EN"
 "http://www.w3.org/Graphics/SVG/1.1/DTD/svg11.dtd">
<!-- Generated by graphviz version 2.43.0 (0)
 -->
<!-- Title: %3 Pages: 1 -->
<svg width="329pt" height="429pt"
 viewBox="0.00 0.00 329.03 428.54" xmlns="http://www.w3.org/2000/svg" xmlns:xlink="http://www.w3.org/1999/xlink">
<g id="graph0" class="graph" transform="scale(1 1) rotate(0) translate(4 424.54)">
<title>%3</title>
<polygon fill="white" stroke="transparent" points="-4,4 -4,-424.54 325.03,-424.54 325.03,4 -4,4"/>
<!-- cb88f20ac2603784380fb0ce06649d0209d6f39e -->
<g id="node1" class="node">
<title>cb88f20ac2603784380fb0ce06649d0209d6f39e</title>
<ellipse fill="none" stroke="black" cx="160.51" cy="-35.36" rx="144.5" ry="35.21"/>
<polygon fill="lightgreen" stroke="transparent" points="66.51,-35.36 66.51,-56.36 142.51,-56.36 142.51,-35.36 66.51,-35.36"/>
<polygon fill="none" stroke="black" points="66.51,-35.36 66.51,-56.36 142.51,-56.36 142.51,-35.36 66.51,-35.36"/>
<text text-anchor="start" x="69.51" y="-43.16" font-family="Times,serif" font-weight="bold" font-size="14.00">24/06/10</text>
<polygon fill="lightblue" stroke="transparent" points="142.51,-35.36 142.51,-56.36 254.51,-56.36 254.51,-35.36 142.51,-35.36"/>
<polygon fill="none" stroke="black" points="142.51,-35.36 142.51,-56.36 254.51,-56.36 254.51,-35.36 142.51,-35.36"/>
<text text-anchor="start" x="145.51" y="-43.16" font-family="Times,serif" font-weight="bold" font-size="14.00">Nicolas Wang</text>
<polygon fill="lightgrey" stroke="transparent" points="66.51,-14.36 66.51,-35.36 142.51,-35.36 142.51,-14.36 66.51,-14.36"/>
<polygon fill="none" stroke="black" points="66.51,-14.36 66.51,-35.36 142.51,-35.36 142.51,-14.36 66.51,-14.36"/>
<text text-anchor="start" x="82.01" y="-21.16" font-family="Times,serif" font-size="14.00">v0.0.3</text>
<polygon fill="none" stroke="black" points="142.51,-14.36 142.51,-35.36 254.51,-35.36 254.51,-14.36 142.51,-14.36"/>
<text text-anchor="start" x="158.51" y="-22.16" font-family="Times,serif" font-weight="bold" font-size="14.00">origin/dev</text>
</g>
<!-- ab40cbd5f27961054113ed7fcc49a4492809898d -->
<g id="node2" class="node">
<title>ab40cbd5f27961054113ed7fcc49a4492809898d</title>
<ellipse fill="none" stroke="black" cx="160.51" cy="-142.07" rx="144.5" ry="35.21"/>
<polygon fill="lightgreen" stroke="transparent" points="66.51,-142.07 66.51,-163.07 142.51,-163.07 142.51,-142.07 66.51,-142.07"/>
<polygon fill="none" stroke="black" points="66.51,-142.07 66.51,-163.07 142.51,-163.07 142.51,-142.07 66.51,-142.07"/>
<text text-anchor="start" x="69.51" y="-149.87" font-family="Times,serif" font-weight="bold" font-size="14.00">24/06/06</text>
<polygon fill="lightblue" stroke="transparent" points="142.51,-142.07 142.51,-163.07 254.51,-163.07 254.51,-142.07 142.51,-142.07"/>
<polygon fill="none" stroke="black" points="142.51,-142.07 142.51,-163.07 254.51,-163.07 254.51,-142.07 142.51,-142.07"/>
<text text-anchor="start" x="145.51" y="-149.87" font-family="Times,serif" font-weight="bold" font-size="14.00">Nicolas Wang</text>
<polygon fill="lightgrey" stroke="transparent" points="66.51,-121.07 66.51,-142.07 142.51,-142.07 142.51,-121.07 66.51,-121.07"/>
<polygon fill="none" stroke="black" points="66.51,-121.07 66.51,-142.07 142.51,-142.07 142.51,-121.07 66.51,-121.07"/>
<text text-anchor="start" x="82.01" y="-127.87" font-family="Times,serif" font-size="14.00">v0.0.2</text>
</g>
<!-- ab40cbd5f27961054113ed7fcc49a4492809898d&#45;&gt;cb88f20ac2603784380fb0ce06649d0209d6f39e -->
<g id="edge1" class="edge">
<title>ab40cbd5f27961054113ed7fcc49a4492809898d&#45;&gt;cb88f20ac2603784380fb0ce06649d0209d6f39e</title>
<path fill="none" stroke="black" d="M160.51,-106.49C160.51,-98.36 160.51,-89.58 160.51,-81.07"/>
<polygon fill="black" stroke="black" points="164.01,-80.9 160.51,-70.9 157.01,-80.9 164.01,-80.9"/>
</g>
<!-- 5ddfad9ca027aed6857715842ef81d0934e8078a -->
<g id="node3" class="node">
<title>5ddfad9ca027aed6857715842ef81d0934e8078a</title>
<ellipse fill="none" stroke="black" cx="160.51" cy="-263.63" rx="160.53" ry="50.41"/>
<polygon fill="lightgreen" stroke="transparent" points="55.51,-273.63 55.51,-294.63 154.51,-294.63 154.51,-273.63 55.51,-273.63"/>
<polygon fill="none" stroke="black" points="55.51,-273.63 55.51,-294.63 154.51,-294.63 154.51,-273.63 55.51,-273.63"/>
<text text-anchor="start" x="70.01" y="-281.43" font-family="Times,serif" font-weight="bold" font-size="14.00">24/06/05</text>
<polygon fill="lightblue" stroke="transparent" points="154.51,-273.63 154.51,-294.63 266.51,-294.63 266.51,-273.63 154.51,-273.63"/>
<polygon fill="none" stroke="black" points="154.51,-273.63 154.51,-294.63 266.51,-294.63 266.51,-273.63 154.51,-273.63"/>
<text text-anchor="start" x="157.51" y="-281.43" font-family="Times,serif" font-weight="bold" font-size="14.00">Nicolas Wang</text>
<polygon fill="lightgrey" stroke="transparent" points="55.51,-252.63 55.51,-273.63 154.51,-273.63 154.51,-252.63 55.51,-252.63"/>
<polygon fill="none" stroke="black" points="55.51,-252.63 55.51,-273.63 154.51,-273.63 154.51,-252.63 55.51,-252.63"/>
<text text-anchor="start" x="82.51" y="-259.43" font-family="Times,serif" font-size="14.00">v0.0.1</text>
<polygon fill="none" stroke="black" points="154.51,-252.63 154.51,-273.63 266.51,-273.63 266.51,-252.63 154.51,-252.63"/>
<text text-anchor="start" x="165.01" y="-259.43" font-family="Times,serif" font-size="14.00">origin/HEAD</text>
<polygon fill="none" stroke="black" points="55.51,-231.63 55.51,-252.63 154.51,-252.63 154.51,-231.63 55.51,-231.63"/>
<text text-anchor="start" x="58.51" y="-239.43" font-family="Times,serif" font-weight="bold" font-size="14.00">origin/main</text>
</g>
<!-- 5ddfad9ca027aed6857715842ef81d0934e8078a&#45;&gt;ab40cbd5f27961054113ed7fcc49a4492809898d -->
<g id="edge2" class="edge">
<title>5ddfad9ca027aed6857715842ef81d0934e8078a&#45;&gt;ab40cbd5f27961054113ed7fcc49a4492809898d</title>
<path fill="none" stroke="black" d="M160.51,-213.31C160.51,-204.89 160.51,-196.2 160.51,-187.91"/>
<polygon fill="black" stroke="black" points="164.01,-187.68 160.51,-177.68 157.01,-187.68 164.01,-187.68"/>
</g>
<!-- 826de06c3718b01f2b709ef9b60d1b79f27cd9a4 -->
<g id="node4" class="node">
<title>826de06c3718b01f2b709ef9b60d1b79f27cd9a4</title>
<ellipse fill="none" stroke="black" cx="160.51" cy="-385.19" rx="144.5" ry="35.21"/>
<polygon fill="lightgreen" stroke="transparent" points="66.51,-385.19 66.51,-406.19 142.51,-406.19 142.51,-385.19 66.51,-385.19"/>
<polygon fill="none" stroke="black" points="66.51,-385.19 66.51,-406.19 142.51,-406.19 142.51,-385.19 66.51,-385.19"/>
<text text-anchor="start" x="69.51" y="-392.99" font-family="Times,serif" font-weight="bold" font-size="14.00">24/06/05</text>
<polygon fill="lightblue" stroke="transparent" points="142.51,-385.19 142.51,-406.19 254.51,-406.19 254.51,-385.19 142.51,-385.19"/>
<polygon fill="none" stroke="black" points="142.51,-385.19 142.51,-406.19 254.51,-406.19 254.51,-385.19 142.51,-385.19"/>
<text text-anchor="start" x="145.51" y="-392.99" font-family="Times,serif" font-weight="bold" font-size="14.00">Nicolas Wang</text>
<polygon fill="none" stroke="black" points="66.51,-364.19 66.51,-385.19 142.51,-385.19 142.51,-364.19 66.51,-364.19"/>
<text text-anchor="start" x="69.51" y="-370.99" font-family="Times,serif" font-size="14.00" fill="grey">826de06c</text>
</g>
<!-- 826de06c3718b01f2b709ef9b60d1b79f27cd9a4&#45;&gt;5ddfad9ca027aed6857715842ef81d0934e8078a -->
<g id="edge3" class="edge">
<title>826de06c3718b01f2b709ef9b60d1b79f27cd9a4&#45;&gt;5ddfad9ca027aed6857715842ef81d0934e8078a</title>
<path fill="none" stroke="black" d="M160.51,-349.6C160.51,-341.67 160.51,-333.02 160.51,-324.36"/>
<polygon fill="black" stroke="black" points="164.01,-324.25 160.51,-314.25 157.01,-324.25 164.01,-324.25"/>
</g>
</g>
</svg>
