<?xml version="1.0" encoding="UTF-8" standalone="no"?>
<!DOCTYPE svg PUBLIC "-//W3C//DTD SVG 1.1//EN"
 "http://www.w3.org/Graphics/SVG/1.1/DTD/svg11.dtd">
<!-- Generated by graphviz version 2.43.0 (0)
 -->
<!-- Title: %3 Pages: 1 -->
<svg width="602pt" height="185pt"
 viewBox="0.00 0.00 602.50 185.42" xmlns="http://www.w3.org/2000/svg" xmlns:xlink="http://www.w3.org/1999/xlink">
<g id="graph0" class="graph" transform="scale(1 1) rotate(0) translate(4 181.42)">
<title>%3</title>
<polygon fill="white" stroke="transparent" points="-4,4 -4,-181.42 598.5,-181.42 598.5,4 -4,4"/>
<!-- c3be1a29d5ad0da59a7a7890b540dd2aa1c8a1ba -->
<g id="node1" class="node">
<title>c3be1a29d5ad0da59a7a7890b540dd2aa1c8a1ba</title>
<ellipse fill="none" stroke="black" cx="144.25" cy="-35.36" rx="144.5" ry="35.21"/>
<polygon fill="lightgreen" stroke="transparent" points="50.25,-35.36 50.25,-56.36 126.25,-56.36 126.25,-35.36 50.25,-35.36"/>
<polygon fill="none" stroke="black" points="50.25,-35.36 50.25,-56.36 126.25,-56.36 126.25,-35.36 50.25,-35.36"/>
<text text-anchor="start" x="53.25" y="-43.16" font-family="Times,serif" font-weight="bold" font-size="14.00">24/07/19</text>
<polygon fill="lightblue" stroke="transparent" points="126.25,-35.36 126.25,-56.36 238.25,-56.36 238.25,-35.36 126.25,-35.36"/>
<polygon fill="none" stroke="black" points="126.25,-35.36 126.25,-56.36 238.25,-56.36 238.25,-35.36 126.25,-35.36"/>
<text text-anchor="start" x="129.25" y="-43.16" font-family="Times,serif" font-weight="bold" font-size="14.00">Nicolas Wang</text>
<polygon fill="none" stroke="black" points="50.25,-14.36 50.25,-35.36 126.25,-35.36 126.25,-14.36 50.25,-14.36"/>
<text text-anchor="start" x="75.25" y="-21.16" font-family="Times,serif" font-size="14.00" fill="lightblue">dev</text>
</g>
<!-- 0e63f4d8cf0c4bc615cd4c6f2a67674fe2801646 -->
<g id="node2" class="node">
<title>0e63f4d8cf0c4bc615cd4c6f2a67674fe2801646</title>
<ellipse fill="none" stroke="black" cx="297.25" cy="-142.07" rx="144.5" ry="35.21"/>
<polygon fill="lightgreen" stroke="transparent" points="203.25,-142.07 203.25,-163.07 279.25,-163.07 279.25,-142.07 203.25,-142.07"/>
<polygon fill="none" stroke="black" points="203.25,-142.07 203.25,-163.07 279.25,-163.07 279.25,-142.07 203.25,-142.07"/>
<text text-anchor="start" x="206.25" y="-149.87" font-family="Times,serif" font-weight="bold" font-size="14.00">24/06/12</text>
<polygon fill="lightblue" stroke="transparent" points="279.25,-142.07 279.25,-163.07 391.25,-163.07 391.25,-142.07 279.25,-142.07"/>
<polygon fill="none" stroke="black" points="279.25,-142.07 279.25,-163.07 391.25,-163.07 391.25,-142.07 279.25,-142.07"/>
<text text-anchor="start" x="282.25" y="-149.87" font-family="Times,serif" font-weight="bold" font-size="14.00">Nicolas Wang</text>
<polygon fill="lightgrey" stroke="transparent" points="203.25,-121.07 203.25,-142.07 279.25,-142.07 279.25,-121.07 203.25,-121.07"/>
<polygon fill="none" stroke="black" points="203.25,-121.07 203.25,-142.07 279.25,-142.07 279.25,-121.07 203.25,-121.07"/>
<text text-anchor="start" x="218.75" y="-127.87" font-family="Times,serif" font-size="14.00">v0.0.4</text>
</g>
<!-- 0e63f4d8cf0c4bc615cd4c6f2a67674fe2801646&#45;&gt;c3be1a29d5ad0da59a7a7890b540dd2aa1c8a1ba -->
<g id="edge1" class="edge">
<title>0e63f4d8cf0c4bc615cd4c6f2a67674fe2801646&#45;&gt;c3be1a29d5ad0da59a7a7890b540dd2aa1c8a1ba</title>
<path fill="none" stroke="black" d="M249.68,-108.51C233.99,-97.77 216.4,-85.73 200.15,-74.61"/>
<polygon fill="black" stroke="black" points="202.02,-71.65 191.79,-68.89 198.07,-77.43 202.02,-71.65"/>
</g>
<!-- 265a15fbe0e2cbe00c16ca8677288a8cf0651485 -->
<g id="node3" class="node">
<title>265a15fbe0e2cbe00c16ca8677288a8cf0651485</title>
<ellipse fill="none" stroke="black" cx="450.25" cy="-35.36" rx="144.5" ry="35.21"/>
<polygon fill="lightgreen" stroke="transparent" points="356.25,-35.36 356.25,-56.36 432.25,-56.36 432.25,-35.36 356.25,-35.36"/>
<polygon fill="none" stroke="black" points="356.25,-35.36 356.25,-56.36 432.25,-56.36 432.25,-35.36 356.25,-35.36"/>
<text text-anchor="start" x="359.25" y="-43.16" font-family="Times,serif" font-weight="bold" font-size="14.00">24/07/19</text>
<polygon fill="lightblue" stroke="transparent" points="432.25,-35.36 432.25,-56.36 544.25,-56.36 544.25,-35.36 432.25,-35.36"/>
<polygon fill="none" stroke="black" points="432.25,-35.36 432.25,-56.36 544.25,-56.36 544.25,-35.36 432.25,-35.36"/>
<text text-anchor="start" x="435.25" y="-43.16" font-family="Times,serif" font-weight="bold" font-size="14.00">Nicolas Wang</text>
<polygon fill="none" stroke="black" points="356.25,-14.36 356.25,-35.36 432.25,-35.36 432.25,-14.36 356.25,-14.36"/>
<text text-anchor="start" x="376.25" y="-21.16" font-family="Times,serif" font-size="14.00" fill="lightblue">main</text>
</g>
<!-- 0e63f4d8cf0c4bc615cd4c6f2a67674fe2801646&#45;&gt;265a15fbe0e2cbe00c16ca8677288a8cf0651485 -->
<g id="edge2" class="edge">
<title>0e63f4d8cf0c4bc615cd4c6f2a67674fe2801646&#45;&gt;265a15fbe0e2cbe00c16ca8677288a8cf0651485</title>
<path fill="none" stroke="black" d="M344.82,-108.51C360.51,-97.77 378.1,-85.73 394.35,-74.61"/>
<polygon fill="black" stroke="black" points="396.43,-77.43 402.71,-68.89 392.48,-71.65 396.43,-77.43"/>
</g>
</g>
</svg>
