<?xml version="1.0" encoding="UTF-8" standalone="no"?>
<!DOCTYPE svg PUBLIC "-//W3C//DTD SVG 1.1//EN"
 "http://www.w3.org/Graphics/SVG/1.1/DTD/svg11.dtd">
<!-- Generated by graphviz version 2.43.0 (0)
 -->
<!-- Title: %3 Pages: 1 -->
<svg width="296pt" height="506pt"
 viewBox="0.00 0.00 296.50 505.55" xmlns="http://www.w3.org/2000/svg" xmlns:xlink="http://www.w3.org/1999/xlink">
<g id="graph0" class="graph" transform="scale(1 1) rotate(0) translate(4 501.55)">
<title>%3</title>
<polygon fill="white" stroke="transparent" points="-4,4 -4,-501.55 292.5,-501.55 292.5,4 -4,4"/>
<!-- cc9ab853a42850a3553a49c8e1adf95eb87a9cb8 -->
<g id="node1" class="node">
<title>cc9ab853a42850a3553a49c8e1adf95eb87a9cb8</title>
<ellipse fill="none" stroke="black" cx="144.25" cy="-35.36" rx="144.5" ry="35.21"/>
<polygon fill="lightgreen" stroke="transparent" points="50.25,-35.36 50.25,-56.36 126.25,-56.36 126.25,-35.36 50.25,-35.36"/>
<polygon fill="none" stroke="black" points="50.25,-35.36 50.25,-56.36 126.25,-56.36 126.25,-35.36 50.25,-35.36"/>
<text text-anchor="start" x="53.25" y="-43.16" font-family="Times,serif" font-weight="bold" font-size="14.00">24/07/19</text>
<polygon fill="lightblue" stroke="transparent" points="126.25,-35.36 126.25,-56.36 238.25,-56.36 238.25,-35.36 126.25,-35.36"/>
<polygon fill="none" stroke="black" points="126.25,-35.36 126.25,-56.36 238.25,-56.36 238.25,-35.36 126.25,-35.36"/>
<text text-anchor="start" x="129.25" y="-43.16" font-family="Times,serif" font-weight="bold" font-size="14.00">Nicolas Wang</text>
<polygon fill="lightgrey" stroke="transparent" points="50.25,-14.36 50.25,-35.36 126.25,-35.36 126.25,-14.36 50.25,-14.36"/>
<polygon fill="none" stroke="black" points="50.25,-14.36 50.25,-35.36 126.25,-35.36 126.25,-14.36 50.25,-14.36"/>
<text text-anchor="start" x="65.75" y="-21.16" font-family="Times,serif" font-size="14.00">v0.0.5</text>
</g>
<!-- 0e63f4d8cf0c4bc615cd4c6f2a67674fe2801646 -->
<g id="node2" class="node">
<title>0e63f4d8cf0c4bc615cd4c6f2a67674fe2801646</title>
<ellipse fill="none" stroke="black" cx="144.25" cy="-142.07" rx="144.5" ry="35.21"/>
<polygon fill="lightgreen" stroke="transparent" points="50.25,-142.07 50.25,-163.07 126.25,-163.07 126.25,-142.07 50.25,-142.07"/>
<polygon fill="none" stroke="black" points="50.25,-142.07 50.25,-163.07 126.25,-163.07 126.25,-142.07 50.25,-142.07"/>
<text text-anchor="start" x="53.25" y="-149.87" font-family="Times,serif" font-weight="bold" font-size="14.00">24/06/12</text>
<polygon fill="lightblue" stroke="transparent" points="126.25,-142.07 126.25,-163.07 238.25,-163.07 238.25,-142.07 126.25,-142.07"/>
<polygon fill="none" stroke="black" points="126.25,-142.07 126.25,-163.07 238.25,-163.07 238.25,-142.07 126.25,-142.07"/>
<text text-anchor="start" x="129.25" y="-149.87" font-family="Times,serif" font-weight="bold" font-size="14.00">Nicolas Wang</text>
<polygon fill="lightgrey" stroke="transparent" points="50.25,-121.07 50.25,-142.07 126.25,-142.07 126.25,-121.07 50.25,-121.07"/>
<polygon fill="none" stroke="black" points="50.25,-121.07 50.25,-142.07 126.25,-142.07 126.25,-121.07 50.25,-121.07"/>
<text text-anchor="start" x="65.75" y="-127.87" font-family="Times,serif" font-size="14.00">v0.0.4</text>
</g>
<!-- 0e63f4d8cf0c4bc615cd4c6f2a67674fe2801646&#45;&gt;cc9ab853a42850a3553a49c8e1adf95eb87a9cb8 -->
<g id="edge1" class="edge">
<title>0e63f4d8cf0c4bc615cd4c6f2a67674fe2801646&#45;&gt;cc9ab853a42850a3553a49c8e1adf95eb87a9cb8</title>
<path fill="none" stroke="black" d="M144.25,-106.49C144.25,-98.36 144.25,-89.58 144.25,-81.07"/>
<polygon fill="black" stroke="black" points="147.75,-80.9 144.25,-70.9 140.75,-80.9 147.75,-80.9"/>
</g>
<!-- cb88f20ac2603784380fb0ce06649d0209d6f39e -->
<g id="node3" class="node">
<title>cb88f20ac2603784380fb0ce06649d0209d6f39e</title>
<ellipse fill="none" stroke="black" cx="144.25" cy="-248.78" rx="144.5" ry="35.21"/>
<polygon fill="lightgreen" stroke="transparent" points="50.25,-248.78 50.25,-269.78 126.25,-269.78 126.25,-248.78 50.25,-248.78"/>
<polygon fill="none" stroke="black" points="50.25,-248.78 50.25,-269.78 126.25,-269.78 126.25,-248.78 50.25,-248.78"/>
<text text-anchor="start" x="53.25" y="-256.58" font-family="Times,serif" font-weight="bold" font-size="14.00">24/06/10</text>
<polygon fill="lightblue" stroke="transparent" points="126.25,-248.78 126.25,-269.78 238.25,-269.78 238.25,-248.78 126.25,-248.78"/>
<polygon fill="none" stroke="black" points="126.25,-248.78 126.25,-269.78 238.25,-269.78 238.25,-248.78 126.25,-248.78"/>
<text text-anchor="start" x="129.25" y="-256.58" font-family="Times,serif" font-weight="bold" font-size="14.00">Nicolas Wang</text>
<polygon fill="lightgrey" stroke="transparent" points="50.25,-227.78 50.25,-248.78 126.25,-248.78 126.25,-227.78 50.25,-227.78"/>
<polygon fill="none" stroke="black" points="50.25,-227.78 50.25,-248.78 126.25,-248.78 126.25,-227.78 50.25,-227.78"/>
<text text-anchor="start" x="65.75" y="-234.58" font-family="Times,serif" font-size="14.00">v0.0.3</text>
</g>
<!-- cb88f20ac2603784380fb0ce06649d0209d6f39e&#45;&gt;0e63f4d8cf0c4bc615cd4c6f2a67674fe2801646 -->
<g id="edge2" class="edge">
<title>cb88f20ac2603784380fb0ce06649d0209d6f39e&#45;&gt;0e63f4d8cf0c4bc615cd4c6f2a67674fe2801646</title>
<path fill="none" stroke="black" d="M144.25,-213.2C144.25,-205.07 144.25,-196.29 144.25,-187.78"/>
<polygon fill="black" stroke="black" points="147.75,-187.61 144.25,-177.61 140.75,-187.61 147.75,-187.61"/>
</g>
<!-- ab40cbd5f27961054113ed7fcc49a4492809898d -->
<g id="node4" class="node">
<title>ab40cbd5f27961054113ed7fcc49a4492809898d</title>
<ellipse fill="none" stroke="black" cx="144.25" cy="-355.49" rx="144.5" ry="35.21"/>
<polygon fill="lightgreen" stroke="transparent" points="50.25,-355.49 50.25,-376.49 126.25,-376.49 126.25,-355.49 50.25,-355.49"/>
<polygon fill="none" stroke="black" points="50.25,-355.49 50.25,-376.49 126.25,-376.49 126.25,-355.49 50.25,-355.49"/>
<text text-anchor="start" x="53.25" y="-363.29" font-family="Times,serif" font-weight="bold" font-size="14.00">24/06/06</text>
<polygon fill="lightblue" stroke="transparent" points="126.25,-355.49 126.25,-376.49 238.25,-376.49 238.25,-355.49 126.25,-355.49"/>
<polygon fill="none" stroke="black" points="126.25,-355.49 126.25,-376.49 238.25,-376.49 238.25,-355.49 126.25,-355.49"/>
<text text-anchor="start" x="129.25" y="-363.29" font-family="Times,serif" font-weight="bold" font-size="14.00">Nicolas Wang</text>
<polygon fill="lightgrey" stroke="transparent" points="50.25,-334.49 50.25,-355.49 126.25,-355.49 126.25,-334.49 50.25,-334.49"/>
<polygon fill="none" stroke="black" points="50.25,-334.49 50.25,-355.49 126.25,-355.49 126.25,-334.49 50.25,-334.49"/>
<text text-anchor="start" x="65.75" y="-341.29" font-family="Times,serif" font-size="14.00">v0.0.2</text>
</g>
<!-- ab40cbd5f27961054113ed7fcc49a4492809898d&#45;&gt;cb88f20ac2603784380fb0ce06649d0209d6f39e -->
<g id="edge3" class="edge">
<title>ab40cbd5f27961054113ed7fcc49a4492809898d&#45;&gt;cb88f20ac2603784380fb0ce06649d0209d6f39e</title>
<path fill="none" stroke="black" d="M144.25,-319.91C144.25,-311.78 144.25,-303 144.25,-294.49"/>
<polygon fill="black" stroke="black" points="147.75,-294.32 144.25,-284.32 140.75,-294.32 147.75,-294.32"/>
</g>
<!-- 5ddfad9ca027aed6857715842ef81d0934e8078a -->
<g id="node5" class="node">
<title>5ddfad9ca027aed6857715842ef81d0934e8078a</title>
<ellipse fill="none" stroke="black" cx="144.25" cy="-462.2" rx="144.5" ry="35.21"/>
<polygon fill="lightgreen" stroke="transparent" points="50.25,-462.2 50.25,-483.2 126.25,-483.2 126.25,-462.2 50.25,-462.2"/>
<polygon fill="none" stroke="black" points="50.25,-462.2 50.25,-483.2 126.25,-483.2 126.25,-462.2 50.25,-462.2"/>
<text text-anchor="start" x="53.25" y="-470" font-family="Times,serif" font-weight="bold" font-size="14.00">24/06/05</text>
<polygon fill="lightblue" stroke="transparent" points="126.25,-462.2 126.25,-483.2 238.25,-483.2 238.25,-462.2 126.25,-462.2"/>
<polygon fill="none" stroke="black" points="126.25,-462.2 126.25,-483.2 238.25,-483.2 238.25,-462.2 126.25,-462.2"/>
<text text-anchor="start" x="129.25" y="-470" font-family="Times,serif" font-weight="bold" font-size="14.00">Nicolas Wang</text>
<polygon fill="lightgrey" stroke="transparent" points="50.25,-441.2 50.25,-462.2 126.25,-462.2 126.25,-441.2 50.25,-441.2"/>
<polygon fill="none" stroke="black" points="50.25,-441.2 50.25,-462.2 126.25,-462.2 126.25,-441.2 50.25,-441.2"/>
<text text-anchor="start" x="65.75" y="-448" font-family="Times,serif" font-size="14.00">v0.0.1</text>
</g>
<!-- 5ddfad9ca027aed6857715842ef81d0934e8078a&#45;&gt;ab40cbd5f27961054113ed7fcc49a4492809898d -->
<g id="edge4" class="edge">
<title>5ddfad9ca027aed6857715842ef81d0934e8078a&#45;&gt;ab40cbd5f27961054113ed7fcc49a4492809898d</title>
<path fill="none" stroke="black" d="M144.25,-426.62C144.25,-418.49 144.25,-409.71 144.25,-401.2"/>
<polygon fill="black" stroke="black" points="147.75,-401.03 144.25,-391.03 140.75,-401.03 147.75,-401.03"/>
</g>
</g>
</svg>
