<?xml version="1.0" encoding="UTF-8" standalone="no"?>
<!DOCTYPE svg PUBLIC "-//W3C//DTD SVG 1.1//EN"
 "http://www.w3.org/Graphics/SVG/1.1/DTD/svg11.dtd">
<!-- Generated by graphviz version 2.43.0 (0)
 -->
<!-- Title: %3 Pages: 1 -->
<svg width="329pt" height="612pt"
 viewBox="0.00 0.00 329.03 612.26" xmlns="http://www.w3.org/2000/svg" xmlns:xlink="http://www.w3.org/1999/xlink">
<g id="graph0" class="graph" transform="scale(1 1) rotate(0) translate(4 608.26)">
<title>%3</title>
<polygon fill="white" stroke="transparent" points="-4,4 -4,-608.26 325.03,-608.26 325.03,4 -4,4"/>
<!-- 8ddd019d5502bf777f4fc6fed9e6fbfb843978fc -->
<g id="node1" class="node">
<title>8ddd019d5502bf777f4fc6fed9e6fbfb843978fc</title>
<ellipse fill="none" stroke="black" cx="160.51" cy="-35.36" rx="151.14" ry="35.21"/>
<polygon fill="lightgreen" stroke="transparent" points="61.51,-35.36 61.51,-56.36 147.51,-56.36 147.51,-35.36 61.51,-35.36"/>
<polygon fill="none" stroke="black" points="61.51,-35.36 61.51,-56.36 147.51,-56.36 147.51,-35.36 61.51,-35.36"/>
<text text-anchor="start" x="69.51" y="-43.16" font-family="Times,serif" font-weight="bold" font-size="14.00">24/06/13</text>
<polygon fill="lightblue" stroke="transparent" points="147.51,-35.36 147.51,-56.36 259.51,-56.36 259.51,-35.36 147.51,-35.36"/>
<polygon fill="none" stroke="black" points="147.51,-35.36 147.51,-56.36 259.51,-56.36 259.51,-35.36 147.51,-35.36"/>
<text text-anchor="start" x="150.51" y="-43.16" font-family="Times,serif" font-weight="bold" font-size="14.00">Nicolas Wang</text>
<polygon fill="none" stroke="black" points="61.51,-14.36 61.51,-35.36 147.51,-35.36 147.51,-14.36 61.51,-14.36"/>
<text text-anchor="start" x="64.51" y="-22.16" font-family="Times,serif" font-weight="bold" font-size="14.00">origin/dev</text>
</g>
<!-- 0e63f4d8cf0c4bc615cd4c6f2a67674fe2801646 -->
<g id="node2" class="node">
<title>0e63f4d8cf0c4bc615cd4c6f2a67674fe2801646</title>
<ellipse fill="none" stroke="black" cx="160.51" cy="-142.07" rx="160.53" ry="35.21"/>
<polygon fill="lightgreen" stroke="transparent" points="55.51,-142.07 55.51,-163.07 154.51,-163.07 154.51,-142.07 55.51,-142.07"/>
<polygon fill="none" stroke="black" points="55.51,-142.07 55.51,-163.07 154.51,-163.07 154.51,-142.07 55.51,-142.07"/>
<text text-anchor="start" x="70.01" y="-149.87" font-family="Times,serif" font-weight="bold" font-size="14.00">24/06/12</text>
<polygon fill="lightblue" stroke="transparent" points="154.51,-142.07 154.51,-163.07 266.51,-163.07 266.51,-142.07 154.51,-142.07"/>
<polygon fill="none" stroke="black" points="154.51,-142.07 154.51,-163.07 266.51,-163.07 266.51,-142.07 154.51,-142.07"/>
<text text-anchor="start" x="157.51" y="-149.87" font-family="Times,serif" font-weight="bold" font-size="14.00">Nicolas Wang</text>
<polygon fill="none" stroke="black" points="55.51,-121.07 55.51,-142.07 154.51,-142.07 154.51,-121.07 55.51,-121.07"/>
<text text-anchor="start" x="58.51" y="-128.87" font-family="Times,serif" font-weight="bold" font-size="14.00">origin/main</text>
<polygon fill="none" stroke="black" points="154.51,-121.07 154.51,-142.07 266.51,-142.07 266.51,-121.07 154.51,-121.07"/>
<text text-anchor="start" x="165.01" y="-127.87" font-family="Times,serif" font-size="14.00">origin/HEAD</text>
</g>
<!-- 0e63f4d8cf0c4bc615cd4c6f2a67674fe2801646&#45;&gt;8ddd019d5502bf777f4fc6fed9e6fbfb843978fc -->
<g id="edge1" class="edge">
<title>0e63f4d8cf0c4bc615cd4c6f2a67674fe2801646&#45;&gt;8ddd019d5502bf777f4fc6fed9e6fbfb843978fc</title>
<path fill="none" stroke="black" d="M160.51,-106.49C160.51,-98.36 160.51,-89.58 160.51,-81.07"/>
<polygon fill="black" stroke="black" points="164.01,-80.9 160.51,-70.9 157.01,-80.9 164.01,-80.9"/>
</g>
<!-- cb88f20ac2603784380fb0ce06649d0209d6f39e -->
<g id="node3" class="node">
<title>cb88f20ac2603784380fb0ce06649d0209d6f39e</title>
<ellipse fill="none" stroke="black" cx="160.51" cy="-248.78" rx="144.5" ry="35.21"/>
<polygon fill="lightgreen" stroke="transparent" points="66.51,-248.78 66.51,-269.78 142.51,-269.78 142.51,-248.78 66.51,-248.78"/>
<polygon fill="none" stroke="black" points="66.51,-248.78 66.51,-269.78 142.51,-269.78 142.51,-248.78 66.51,-248.78"/>
<text text-anchor="start" x="69.51" y="-256.58" font-family="Times,serif" font-weight="bold" font-size="14.00">24/06/10</text>
<polygon fill="lightblue" stroke="transparent" points="142.51,-248.78 142.51,-269.78 254.51,-269.78 254.51,-248.78 142.51,-248.78"/>
<polygon fill="none" stroke="black" points="142.51,-248.78 142.51,-269.78 254.51,-269.78 254.51,-248.78 142.51,-248.78"/>
<text text-anchor="start" x="145.51" y="-256.58" font-family="Times,serif" font-weight="bold" font-size="14.00">Nicolas Wang</text>
<polygon fill="lightgrey" stroke="transparent" points="66.51,-227.78 66.51,-248.78 142.51,-248.78 142.51,-227.78 66.51,-227.78"/>
<polygon fill="none" stroke="black" points="66.51,-227.78 66.51,-248.78 142.51,-248.78 142.51,-227.78 66.51,-227.78"/>
<text text-anchor="start" x="82.01" y="-234.58" font-family="Times,serif" font-size="14.00">v0.0.3</text>
</g>
<!-- cb88f20ac2603784380fb0ce06649d0209d6f39e&#45;&gt;0e63f4d8cf0c4bc615cd4c6f2a67674fe2801646 -->
<g id="edge2" class="edge">
<title>cb88f20ac2603784380fb0ce06649d0209d6f39e&#45;&gt;0e63f4d8cf0c4bc615cd4c6f2a67674fe2801646</title>
<path fill="none" stroke="black" d="M160.51,-213.2C160.51,-205.07 160.51,-196.29 160.51,-187.78"/>
<polygon fill="black" stroke="black" points="164.01,-187.61 160.51,-177.61 157.01,-187.61 164.01,-187.61"/>
</g>
<!-- ab40cbd5f27961054113ed7fcc49a4492809898d -->
<g id="node4" class="node">
<title>ab40cbd5f27961054113ed7fcc49a4492809898d</title>
<ellipse fill="none" stroke="black" cx="160.51" cy="-355.49" rx="144.5" ry="35.21"/>
<polygon fill="lightgreen" stroke="transparent" points="66.51,-355.49 66.51,-376.49 142.51,-376.49 142.51,-355.49 66.51,-355.49"/>
<polygon fill="none" stroke="black" points="66.51,-355.49 66.51,-376.49 142.51,-376.49 142.51,-355.49 66.51,-355.49"/>
<text text-anchor="start" x="69.51" y="-363.29" font-family="Times,serif" font-weight="bold" font-size="14.00">24/06/06</text>
<polygon fill="lightblue" stroke="transparent" points="142.51,-355.49 142.51,-376.49 254.51,-376.49 254.51,-355.49 142.51,-355.49"/>
<polygon fill="none" stroke="black" points="142.51,-355.49 142.51,-376.49 254.51,-376.49 254.51,-355.49 142.51,-355.49"/>
<text text-anchor="start" x="145.51" y="-363.29" font-family="Times,serif" font-weight="bold" font-size="14.00">Nicolas Wang</text>
<polygon fill="lightgrey" stroke="transparent" points="66.51,-334.49 66.51,-355.49 142.51,-355.49 142.51,-334.49 66.51,-334.49"/>
<polygon fill="none" stroke="black" points="66.51,-334.49 66.51,-355.49 142.51,-355.49 142.51,-334.49 66.51,-334.49"/>
<text text-anchor="start" x="82.01" y="-341.29" font-family="Times,serif" font-size="14.00">v0.0.2</text>
</g>
<!-- ab40cbd5f27961054113ed7fcc49a4492809898d&#45;&gt;cb88f20ac2603784380fb0ce06649d0209d6f39e -->
<g id="edge3" class="edge">
<title>ab40cbd5f27961054113ed7fcc49a4492809898d&#45;&gt;cb88f20ac2603784380fb0ce06649d0209d6f39e</title>
<path fill="none" stroke="black" d="M160.51,-319.91C160.51,-311.78 160.51,-303 160.51,-294.49"/>
<polygon fill="black" stroke="black" points="164.01,-294.32 160.51,-284.32 157.01,-294.32 164.01,-294.32"/>
</g>
<!-- 5ddfad9ca027aed6857715842ef81d0934e8078a -->
<g id="node5" class="node">
<title>5ddfad9ca027aed6857715842ef81d0934e8078a</title>
<ellipse fill="none" stroke="black" cx="160.51" cy="-462.2" rx="144.5" ry="35.21"/>
<polygon fill="lightgreen" stroke="transparent" points="66.51,-462.2 66.51,-483.2 142.51,-483.2 142.51,-462.2 66.51,-462.2"/>
<polygon fill="none" stroke="black" points="66.51,-462.2 66.51,-483.2 142.51,-483.2 142.51,-462.2 66.51,-462.2"/>
<text text-anchor="start" x="69.51" y="-470" font-family="Times,serif" font-weight="bold" font-size="14.00">24/06/05</text>
<polygon fill="lightblue" stroke="transparent" points="142.51,-462.2 142.51,-483.2 254.51,-483.2 254.51,-462.2 142.51,-462.2"/>
<polygon fill="none" stroke="black" points="142.51,-462.2 142.51,-483.2 254.51,-483.2 254.51,-462.2 142.51,-462.2"/>
<text text-anchor="start" x="145.51" y="-470" font-family="Times,serif" font-weight="bold" font-size="14.00">Nicolas Wang</text>
<polygon fill="lightgrey" stroke="transparent" points="66.51,-441.2 66.51,-462.2 142.51,-462.2 142.51,-441.2 66.51,-441.2"/>
<polygon fill="none" stroke="black" points="66.51,-441.2 66.51,-462.2 142.51,-462.2 142.51,-441.2 66.51,-441.2"/>
<text text-anchor="start" x="82.01" y="-448" font-family="Times,serif" font-size="14.00">v0.0.1</text>
</g>
<!-- 5ddfad9ca027aed6857715842ef81d0934e8078a&#45;&gt;ab40cbd5f27961054113ed7fcc49a4492809898d -->
<g id="edge4" class="edge">
<title>5ddfad9ca027aed6857715842ef81d0934e8078a&#45;&gt;ab40cbd5f27961054113ed7fcc49a4492809898d</title>
<path fill="none" stroke="black" d="M160.51,-426.62C160.51,-418.49 160.51,-409.71 160.51,-401.2"/>
<polygon fill="black" stroke="black" points="164.01,-401.03 160.51,-391.03 157.01,-401.03 164.01,-401.03"/>
</g>
<!-- 826de06c3718b01f2b709ef9b60d1b79f27cd9a4 -->
<g id="node6" class="node">
<title>826de06c3718b01f2b709ef9b60d1b79f27cd9a4</title>
<ellipse fill="none" stroke="black" cx="160.51" cy="-568.91" rx="144.5" ry="35.21"/>
<polygon fill="lightgreen" stroke="transparent" points="66.51,-568.91 66.51,-589.91 142.51,-589.91 142.51,-568.91 66.51,-568.91"/>
<polygon fill="none" stroke="black" points="66.51,-568.91 66.51,-589.91 142.51,-589.91 142.51,-568.91 66.51,-568.91"/>
<text text-anchor="start" x="69.51" y="-576.71" font-family="Times,serif" font-weight="bold" font-size="14.00">24/06/05</text>
<polygon fill="lightblue" stroke="transparent" points="142.51,-568.91 142.51,-589.91 254.51,-589.91 254.51,-568.91 142.51,-568.91"/>
<polygon fill="none" stroke="black" points="142.51,-568.91 142.51,-589.91 254.51,-589.91 254.51,-568.91 142.51,-568.91"/>
<text text-anchor="start" x="145.51" y="-576.71" font-family="Times,serif" font-weight="bold" font-size="14.00">Nicolas Wang</text>
<polygon fill="none" stroke="black" points="66.51,-547.91 66.51,-568.91 142.51,-568.91 142.51,-547.91 66.51,-547.91"/>
<text text-anchor="start" x="69.51" y="-554.71" font-family="Times,serif" font-size="14.00" fill="grey">826de06c</text>
</g>
<!-- 826de06c3718b01f2b709ef9b60d1b79f27cd9a4&#45;&gt;5ddfad9ca027aed6857715842ef81d0934e8078a -->
<g id="edge5" class="edge">
<title>826de06c3718b01f2b709ef9b60d1b79f27cd9a4&#45;&gt;5ddfad9ca027aed6857715842ef81d0934e8078a</title>
<path fill="none" stroke="black" d="M160.51,-533.33C160.51,-525.2 160.51,-516.42 160.51,-507.91"/>
<polygon fill="black" stroke="black" points="164.01,-507.74 160.51,-497.74 157.01,-507.74 164.01,-507.74"/>
</g>
</g>
</svg>
